<?xml version="1.0" encoding="utf-8"?><svg xmlns="http://www.w3.org/2000/svg" xmlns:xlink="http://www.w3.org/1999/xlink"><symbol fill="none" viewBox="0 0 16 16" id="arrow-down" xmlns="http://www.w3.org/2000/svg"><path fill-rule="evenodd" clip-rule="evenodd" d="m9 12.086 4.293-4.293 1.414 1.414-6 6-.707.707-.707-.707-6-6 1.414-1.414L7 12.086V0h2v12.086Z" fill="currentColor"/></symbol><symbol fill="none" viewBox="0 0 16 16" id="arrow-left" xmlns="http://www.w3.org/2000/svg"><path fill-rule="evenodd" clip-rule="evenodd" d="m6.793 1.293-6 6L.086 8l.707.707 6 6 1.414-1.414L3.914 9H16V7H3.914l4.293-4.293-1.414-1.414Z" fill="currentColor"/></symbol><symbol fill="none" viewBox="0 0 16 16" id="arrow-right" xmlns="http://www.w3.org/2000/svg"><path fill-rule="evenodd" clip-rule="evenodd" d="m9.207 14.707 6-6L15.914 8l-.707-.707-6-6-1.414 1.414L12.086 7H0v2h12.086l-4.293 4.293 1.414 1.414Z" fill="currentColor"/></symbol><symbol fill="none" viewBox="0 0 16 16" id="arrow-up" xmlns="http://www.w3.org/2000/svg"><path fill-rule="evenodd" clip-rule="evenodd" d="m14.707 6.793-6-6L8 .086l-.707.707-6 6 1.414 1.414L7 3.914V16h2V3.914l4.293 4.293 1.414-1.414Z" fill="currentColor"/></symbol><symbol fill="none" viewBox="0 0 16 16" id="asterisk" xmlns="http://www.w3.org/2000/svg"><path d="M7.505 3.537c.08-.574.91-.574.99 0l.269 1.918a.5.5 0 0 0 .75.362l1.667-.987c.499-.295 1.016.354.617.775L10.466 7.01a.5.5 0 0 0 .185.811l1.81.689c.542.206.358 1.015-.22.965l-1.93-.165a.5.5 0 0 0-.519.65l.59 1.846c.177.552-.57.912-.892.43l-1.074-1.612a.5.5 0 0 0-.832 0l-1.075 1.611c-.321.483-1.069.123-.892-.43l.59-1.844a.5.5 0 0 0-.518-.65l-1.93.164c-.578.05-.763-.76-.22-.965l1.81-.689a.5.5 0 0 0 .185-.811L4.202 5.605c-.4-.421.118-1.07.617-.775l1.667.987a.5.5 0 0 0 .75-.362l.269-1.918Z" fill="currentColor"/></symbol><symbol fill="none" viewBox="0 0 16 16" id="cross" xmlns="http://www.w3.org/2000/svg"><g clip-path="url(#fa)"><path fill-rule="evenodd" clip-rule="evenodd" d="M14.708 2.707 15.415 2 14.001.586l-.707.707L8 6.586 2.708 1.293 2.001.586.587 2l.707.707L6.587 8l-5.293 5.293L.587 14 2 15.414l.707-.707 5.293-5.293 5.293 5.293.707.707L15.415 14l-.707-.707L9.415 8l5.293-5.293Z" fill="currentColor"/></g><defs><clipPath id="fa"><path fill="currentColor" d="M0 0h16v16H0z"/></clipPath></defs></symbol><symbol fill="none" viewBox="0 0 16 16" id="dots-h" xmlns="http://www.w3.org/2000/svg"><path fill-rule="evenodd" clip-rule="evenodd" d="M4.5 8a1.5 1.5 0 1 1-3 0 1.5 1.5 0 0 1 3 0Zm5 0a1.5 1.5 0 1 1-3 0 1.5 1.5 0 0 1 3 0ZM13 9.5a1.5 1.5 0 1 0 0-3 1.5 1.5 0 0 0 0 3Z" fill="currentColor"/></symbol><symbol fill="none" viewBox="0 0 16 16" id="eye-close" xmlns="http://www.w3.org/2000/svg"><path fill-rule="evenodd" clip-rule="evenodd" d="m5.048 9.538-3.755 3.755 1.414 1.414 12-12-1.414-1.414-1.958 1.958A7.752 7.752 0 0 0 8 2.501C4.264 2.5 1.176 5.146.047 8.696l1.906.606C2.863 6.444 5.273 4.5 8 4.5c.62 0 1.223.1 1.797.29l-1.26 1.258a3 3 0 0 0-3.49 3.49Zm5.823-1.41L7.13 11.872a3 3 0 0 0 3.743-3.743Zm3.006-3.005-1.414 1.414a7.398 7.398 0 0 1 1.584 2.766l1.906-.606a9.424 9.424 0 0 0-2.076-3.574Z" fill="currentColor"/></symbol><symbol fill="none" viewBox="0 0 16 16" id="eye-open" xmlns="http://www.w3.org/2000/svg"><path fill-rule="evenodd" clip-rule="evenodd" d="M1.953 9.303C2.863 6.444 5.273 4.5 8 4.5s5.138 1.944 6.047 4.803l1.906-.606C14.824 5.147 11.736 2.5 8 2.5 4.264 2.5 1.176 5.147.047 8.697l1.906.606ZM8 12a3 3 0 1 0 0-6 3 3 0 0 0 0 6Z" fill="currentColor"/></symbol><symbol fill="none" viewBox="0 0 16 16" id="mail" xmlns="http://www.w3.org/2000/svg"><path fill-rule="evenodd" clip-rule="evenodd" d="M2 2H1v12h14V2H2Zm1 2.5V4h10v.5L8 8.25 3 4.5ZM3 7v5h10V7l-4.4 3.3-.6.45-.6-.45L3 7Z" fill="currentColor"/></symbol><symbol fill="none" viewBox="0 0 16 16" id="menu" xmlns="http://www.w3.org/2000/svg"><path fill-rule="evenodd" clip-rule="evenodd" d="M0 2h16v2H0V2Zm0 5h16v2H0V7Zm10 5H0v2h10v-2Z" fill="currentColor"/></symbol><symbol fill="none" viewBox="0 0 16 16" id="user" xmlns="http://www.w3.org/2000/svg"><path fill-rule="evenodd" clip-rule="evenodd" d="M11 5a3 3 0 1 1-6 0 3 3 0 0 1 6 0Zm2 0A5 5 0 1 1 3 5a5 5 0 0 1 10 0Zm-5 5c3.09 0 5.848 1.323 7.728 3.313l-1.454 1.374A8.644 8.644 0 0 0 8 12a8.644 8.644 0 0 0-6.273 2.687L.274 13.313A10.644 10.644 0 0 1 8 10Zm-3 4h6v2H5v-2Z" fill="currentColor"/></symbol></svg>