<svg width="16" height="16" viewBox="0 0 16 16" fill="none" xmlns="http://www.w3.org/2000/svg">
<path d="M7.50461 3.53712C7.58501 2.96289 8.41456 2.96289 8.49495 3.53712L8.76354 5.45549C8.81301 5.80887 9.2061 5.99818 9.51324 5.81652L11.1805 4.83043C11.6796 4.53526 12.1968 5.18382 11.798 5.60471L10.4656 7.01078C10.2202 7.26979 10.3173 7.69515 10.6508 7.82202L12.4613 8.51075C13.0032 8.71691 12.8186 9.52566 12.2409 9.47626L10.3109 9.31123C9.95535 9.28083 9.68332 9.62194 9.79207 9.9618L10.3824 11.8067C10.5592 12.359 9.81175 12.7189 9.49017 12.2364L8.41583 10.6246C8.21793 10.3276 7.78163 10.3276 7.58373 10.6246L6.50939 12.2364C6.18781 12.7189 5.44041 12.359 5.61713 11.8067L6.20749 9.9618C6.31624 9.62194 6.04422 9.28083 5.68868 9.31123L3.75864 9.47626C3.18092 9.52566 2.99633 8.71691 3.53827 8.51075L5.34878 7.82202C5.68229 7.69515 5.77938 7.26979 5.53394 7.01078L4.20156 5.60471C3.80273 5.18382 4.31995 4.53526 4.81902 4.83043L6.48633 5.81652C6.79346 5.99818 7.18655 5.80887 7.23603 5.45549L7.50461 3.53712Z" fill="currentColor"/>
</svg>
