<svg width="16" height="16" viewBox="0 0 16 16" fill="none" xmlns="http://www.w3.org/2000/svg">
<path fill-rule="evenodd" clip-rule="evenodd" d="M4.50006 8C4.50006 8.82843 3.82849 9.5 3.00006 9.5C2.17163 9.5 1.50006 8.82843 1.50006 8C1.50006 7.17157 2.17163 6.5 3.00006 6.5C3.82849 6.5 4.50006 7.17157 4.50006 8ZM9.50006 8C9.50006 8.82843 8.82849 9.5 8.00006 9.5C7.17163 9.5 6.50006 8.82843 6.50006 8C6.50006 7.17157 7.17163 6.5 8.00006 6.5C8.82849 6.5 9.50006 7.17157 9.50006 8ZM13.0001 9.5C13.8285 9.5 14.5001 8.82843 14.5001 8C14.5001 7.17157 13.8285 6.5 13.0001 6.5C12.1716 6.5 11.5001 7.17157 11.5001 8C11.5001 8.82843 12.1716 9.5 13.0001 9.5Z" fill="currentColor"/>
</svg>
