<svg width="16" height="16" viewBox="0 0 16 16" fill="none" xmlns="http://www.w3.org/2000/svg">
<path fill-rule="evenodd" clip-rule="evenodd" d="M5.04805 9.53778L1.29287 13.293L2.70708 14.7072L14.7071 2.70718L13.2929 1.29297L11.3345 3.25131C10.3173 2.76936 9.19165 2.50008 8.00004 2.50008C4.26376 2.50008 1.1758 5.14743 0.0470581 8.69704L1.95301 9.30311C2.86214 6.44416 5.27284 4.50008 8.00004 4.50008C8.61987 4.50008 9.22335 4.6005 9.79658 4.78926L8.53771 6.04813C8.36325 6.01656 8.18355 6.00008 8 6.00008C6.34315 6.00008 5 7.34322 5 9.00008C5 9.18363 5.01648 9.36333 5.04805 9.53778ZM10.8715 8.12864L7.12856 11.8715C7.40434 11.9551 7.69692 12.0001 8 12.0001C9.65685 12.0001 11 10.6569 11 9.00008C11 8.697 10.9551 8.40442 10.8715 8.12864ZM13.8767 5.12341L12.4628 6.53733C13.159 7.29606 13.7077 8.23584 14.0471 9.30311L15.953 8.69704C15.5221 7.34198 14.8057 6.11841 13.8767 5.12341Z" fill="currentColor"/>
</svg>
