<svg width="16" height="16" viewBox="0 0 16 16" fill="none" xmlns="http://www.w3.org/2000/svg">
<path fill-rule="evenodd" clip-rule="evenodd" d="M11.0008 5C11.0008 6.65685 9.65767 8 8.00082 8C6.34396 8 5.00082 6.65685 5.00082 5C5.00082 3.34315 6.34396 2 8.00082 2C9.65767 2 11.0008 3.34315 11.0008 5ZM13.0008 5C13.0008 7.76142 10.7622 10 8.00082 10C5.23939 10 3.00082 7.76142 3.00082 5C3.00082 2.23858 5.23939 0 8.00082 0C10.7622 0 13.0008 2.23858 13.0008 5ZM8.00082 10C11.0893 10 13.8483 11.3233 15.7278 13.3134L14.2738 14.6866C12.7534 13.0767 10.5123 12 8.00082 12C5.48929 12 3.24828 13.0767 1.72783 14.6866L0.273804 13.3134C2.15335 11.3233 4.91235 10 8.00082 10ZM5.00082 14H6.00082H10.0008H11.0008V16H10.0008H6.00082H5.00082V14Z" fill="currentColor"/>
</svg>
